<svg width="30" height="30" viewBox="0 0 30 30" fill="none" xmlns="http://www.w3.org/2000/svg">
<path d="M22.875 7.13747C22.7594 7.02159 22.622 6.92966 22.4708 6.86693C22.3196 6.80421 22.1575 6.77192 21.9938 6.77192C21.8301 6.77192 21.668 6.80421 21.5168 6.86693C21.3655 6.92966 21.2282 7.02159 21.1125 7.13747L15 13.2375L8.88754 7.12497C8.77181 7.00925 8.63442 6.91745 8.48321 6.85482C8.33201 6.79218 8.16995 6.75995 8.00629 6.75995C7.84262 6.75995 7.68056 6.79218 7.52936 6.85482C7.37815 6.91745 7.24076 7.00925 7.12504 7.12497C7.00931 7.2407 6.91751 7.37809 6.85488 7.5293C6.79225 7.6805 6.76001 7.84256 6.76001 8.00622C6.76001 8.16989 6.79225 8.33195 6.85488 8.48315C6.91751 8.63436 7.00931 8.77175 7.12504 8.88747L13.2375 15L7.12504 21.1125C7.00931 21.2282 6.91751 21.3656 6.85488 21.5168C6.79225 21.668 6.76001 21.8301 6.76001 21.9937C6.76001 22.1574 6.79225 22.3194 6.85488 22.4707C6.91751 22.6219 7.00931 22.7592 7.12504 22.875C7.24076 22.9907 7.37815 23.0825 7.52936 23.1451C7.68056 23.2078 7.84262 23.24 8.00629 23.24C8.16995 23.24 8.33201 23.2078 8.48321 23.1451C8.63442 23.0825 8.77181 22.9907 8.88754 22.875L15 16.7625L21.1125 22.875C21.2283 22.9907 21.3656 23.0825 21.5169 23.1451C21.6681 23.2078 21.8301 23.24 21.9938 23.24C22.1574 23.24 22.3195 23.2078 22.4707 23.1451C22.6219 23.0825 22.7593 22.9907 22.875 22.875C22.9908 22.7592 23.0826 22.6219 23.1452 22.4707C23.2078 22.3194 23.2401 22.1574 23.2401 21.9937C23.2401 21.8301 23.2078 21.668 23.1452 21.5168C23.0826 21.3656 22.9908 21.2282 22.875 21.1125L16.7625 15L22.875 8.88747C23.35 8.41247 23.35 7.61247 22.875 7.13747Z" fill="black"/>
</svg>
