<svg width="36" height="51" viewBox="0 0 36 51" fill="none" xmlns="http://www.w3.org/2000/svg">
<g clip-path="url(#clip0_1_31)">
<path d="M18.1784 50.3737L3.74876 46.3679L0.533112 10.3014H35.8669L32.6479 46.3623L18.1784 50.3737Z" fill="#264DE4"/>
<path d="M29.8921 44.0661L32.6428 13.2503H18.2V47.3075L29.8921 44.0661Z" fill="#2965F1"/>
<path d="M7.90486 26.6269L8.30126 31.0503H18.2V26.6269H7.90486ZM7.10818 17.6738L7.51026 22.0972H18.2V17.6738H7.10818ZM18.2 38.115L18.1806 38.1201L13.2543 36.7899L12.9393 33.2621H8.49891L9.11857 40.2075L18.1797 42.7227L18.2 42.7172V38.115Z" fill="#EBEBEB"/>
<path d="M8.84875 0.5H14.2061V2.74044H11.0892V4.98089H14.2064V7.22119H8.84875V0.5ZM15.2777 0.5H20.6352V2.4482H17.5181V2.83781H20.6352V7.3187H15.2778V5.27285H18.3949V4.88324H15.2776L15.2777 0.5ZM21.7068 0.5H27.0643V2.4482H23.9472V2.83781H27.0643V7.3187H21.7068V5.27285H24.8238V4.88324H21.7069V0.5H21.7068Z" fill="black"/>
<path d="M28.4669 26.6269L29.2654 17.6738H18.1848V22.0972H24.4177L24.0152 26.6269H18.1848V31.0503H23.6317L23.1181 36.7871L18.1846 38.1187V42.7206L27.2529 40.2075L27.3194 39.4601L28.359 27.8147L28.4669 26.6269Z" fill="white"/>
</g>
<defs>
<clipPath id="clip0_1_31">
<rect width="35.4667" height="50" fill="white" transform="translate(0.466675 0.5)"/>
</clipPath>
</defs>
</svg>
