<svg width="30" height="30" viewBox="0 0 30 30" fill="none" xmlns="http://www.w3.org/2000/svg">
<path d="M5.15625 26.25C4.28601 26.25 3.45141 25.9043 2.83606 25.2889C2.2207 24.6736 1.875 23.839 1.875 22.9688V18.2812C1.875 17.9083 2.02316 17.5506 2.28688 17.2869C2.5506 17.0232 2.90829 16.875 3.28125 16.875C3.65421 16.875 4.0119 17.0232 4.27562 17.2869C4.53934 17.5506 4.6875 17.9083 4.6875 18.2812V22.9688C4.6875 23.2275 4.8975 23.4375 5.15625 23.4375H24.8438C24.9681 23.4375 25.0873 23.3881 25.1752 23.3002C25.2631 23.2123 25.3125 23.0931 25.3125 22.9688V18.2812C25.3125 17.9083 25.4607 17.5506 25.7244 17.2869C25.9881 17.0232 26.3458 16.875 26.7188 16.875C27.0917 16.875 27.4494 17.0232 27.7131 17.2869C27.9768 17.5506 28.125 17.9083 28.125 18.2812V22.9688C28.125 23.839 27.7793 24.6736 27.1639 25.2889C26.5486 25.9043 25.714 26.25 24.8438 26.25H5.15625Z" fill="black"/>
<path d="M13.5937 14.4169V3.75C13.5937 3.37704 13.7419 3.01935 14.0056 2.75563C14.2693 2.49191 14.627 2.34375 15 2.34375C15.3729 2.34375 15.7306 2.49191 15.9943 2.75563C16.2581 3.01935 16.4062 3.37704 16.4062 3.75V14.4169L20.1 10.725C20.2305 10.5945 20.3854 10.491 20.5559 10.4204C20.7264 10.3497 20.9092 10.3134 21.0937 10.3134C21.2783 10.3134 21.461 10.3497 21.6315 10.4204C21.8021 10.491 21.957 10.5945 22.0875 10.725C22.218 10.8555 22.3215 11.0104 22.3921 11.1809C22.4628 11.3514 22.4991 11.5342 22.4991 11.7188C22.4991 11.9033 22.4628 12.0861 22.3921 12.2566C22.3215 12.4271 22.218 12.582 22.0875 12.7125L15.9937 18.8062C15.8633 18.9369 15.7084 19.0405 15.5379 19.1112C15.3674 19.1819 15.1846 19.2183 15 19.2183C14.8154 19.2183 14.6326 19.1819 14.4621 19.1112C14.2916 19.0405 14.1367 18.9369 14.0062 18.8062L7.91248 12.7125C7.78198 12.582 7.67846 12.4271 7.60783 12.2566C7.53721 12.0861 7.50085 11.9033 7.50085 11.7188C7.50085 11.5342 7.53721 11.3514 7.60783 11.1809C7.67846 11.0104 7.78198 10.8555 7.91248 10.725C8.04298 10.5945 8.19791 10.491 8.36842 10.4204C8.53892 10.3497 8.72167 10.3134 8.90623 10.3134C9.09079 10.3134 9.27353 10.3497 9.44404 10.4204C9.61455 10.491 9.76948 10.5945 9.89998 10.725L13.5937 14.4169Z" fill="black"/>
</svg>
