<svg width="34" height="51" viewBox="0 0 34 51" fill="none" xmlns="http://www.w3.org/2000/svg">
<g clip-path="url(#clip0_1_42)">
<path d="M8.41668 50.5C13.0167 50.5 16.75 46.7667 16.75 42.1667V33.8333H8.41668C3.81668 33.8333 0.0833435 37.5667 0.0833435 42.1667C0.0833435 46.7667 3.81668 50.5 8.41668 50.5Z" fill="#0ACF83"/>
<path d="M0.0833435 25.5C0.0833435 20.9 3.81668 17.1667 8.41668 17.1667H16.75V33.8333H8.41668C3.81668 33.8333 0.0833435 30.1 0.0833435 25.5Z" fill="#A259FF"/>
<path d="M0.0833435 8.83333C0.0833435 4.23333 3.81668 0.5 8.41668 0.5H16.75V17.1667H8.41668C3.81668 17.1667 0.0833435 13.4333 0.0833435 8.83333Z" fill="#F24E1E"/>
<path d="M16.75 0.5H25.0833C29.6833 0.5 33.4167 4.23333 33.4167 8.83333C33.4167 13.4333 29.6833 17.1667 25.0833 17.1667H16.75V0.5Z" fill="#FF7262"/>
<path d="M33.4167 25.5C33.4167 30.1 29.6833 33.8333 25.0833 33.8333C20.4833 33.8333 16.75 30.1 16.75 25.5C16.75 20.9 20.4833 17.1667 25.0833 17.1667C29.6833 17.1667 33.4167 20.9 33.4167 25.5Z" fill="#1ABCFE"/>
</g>
<defs>
<clipPath id="clip0_1_42">
<rect width="33.3333" height="50" fill="white" transform="translate(0.0833435 0.5)"/>
</clipPath>
</defs>
</svg>
