<svg width="26" height="26" viewBox="0 0 26 26" fill="none" xmlns="http://www.w3.org/2000/svg">
<g clip-path="url(#clip0_29_125)">
<path d="M25.8438 13.6724C25.8438 16.4649 25.0487 18.9762 23.4587 21.2062C21.87 23.4362 19.8162 24.9787 17.2987 25.8349C17.0063 25.8912 16.7912 25.8524 16.6562 25.7187C16.5896 25.6539 16.5372 25.576 16.5021 25.49C16.467 25.4039 16.4501 25.3116 16.4525 25.2187V21.6974C16.4525 20.6187 16.17 19.8287 15.6063 19.3287C16.1694 19.2722 16.7274 19.1719 17.275 19.0287C17.7675 18.8949 18.2775 18.6787 18.8037 18.3787C19.3097 18.0956 19.7572 17.7189 20.1225 17.2687C20.475 16.8287 20.7625 16.2449 20.985 15.5162C21.2075 14.7874 21.3187 13.9512 21.3187 13.0062C21.3187 11.6599 20.89 10.5137 20.0338 9.56868C20.4338 8.55618 20.3913 7.42243 19.9025 6.16493C19.5987 6.06493 19.16 6.12743 18.585 6.34868C18.0634 6.54461 17.5619 6.79032 17.0875 7.08243L16.4688 7.48243C15.4525 7.19269 14.4005 7.0471 13.3438 7.04993C12.2869 7.0475 11.235 7.19351 10.2188 7.48368C9.99268 7.32711 9.76217 7.17705 9.5275 7.03368C9.24 6.85493 8.78625 6.64118 8.1675 6.39118C7.55 6.14118 7.0825 6.06618 6.7675 6.16618C6.29125 7.42243 6.2525 8.55618 6.655 9.56868C5.7975 10.5137 5.3675 11.6599 5.3675 13.0062C5.3675 13.9512 5.48 14.7849 5.7025 15.5087C5.925 16.2312 6.21 16.8149 6.55625 17.2599C6.91529 17.7148 7.36044 18.0946 7.86625 18.3774C8.3925 18.6774 8.90375 18.8949 9.39625 19.0274C9.89 19.1624 10.4462 19.2624 11.065 19.3287C10.6313 19.7287 10.365 20.3024 10.2675 21.0474C10.0344 21.1603 9.78845 21.2443 9.535 21.2974C9.22957 21.3574 8.91873 21.3854 8.6075 21.3812C8.24875 21.3812 7.895 21.2612 7.54125 21.0224C7.18875 20.7824 6.8875 20.4349 6.6375 19.9799C6.44221 19.6358 6.17278 19.3395 5.84875 19.1124C5.52875 18.8899 5.26 18.7562 5.0425 18.7124L4.7175 18.6624C4.49 18.6624 4.3325 18.6874 4.245 18.7374C4.1575 18.7874 4.1325 18.8499 4.16375 18.9287C4.20051 19.0135 4.24981 19.0923 4.31 19.1624C4.37244 19.2375 4.4438 19.3046 4.5225 19.3624L4.635 19.4449C4.875 19.5574 5.11 19.7687 5.34375 20.0799C5.5775 20.3912 5.74875 20.6749 5.85625 20.9299L6.01875 21.3137C6.16 21.7362 6.39875 22.0787 6.73625 22.3399C7.0725 22.6024 7.43625 22.7687 7.82625 22.8399C8.21625 22.9124 8.59375 22.9524 8.9575 22.9574C9.32 22.9624 9.6225 22.9437 9.86125 22.8987L10.235 22.8324C10.235 23.2549 10.2375 23.7499 10.2437 24.3174L10.2513 25.2174C10.2513 25.4174 10.1812 25.5849 10.0387 25.7174C9.89875 25.8524 9.68125 25.8912 9.38875 25.8349C6.87125 24.9787 4.8175 23.4349 3.22875 21.2062C1.63875 18.9762 0.84375 16.4649 0.84375 13.6724C0.84375 11.3474 1.4025 9.20493 2.52 7.24118C3.60185 5.31512 5.17094 3.70724 7.07 2.57868C8.96312 1.43907 11.1341 0.844298 13.3438 0.859928C15.5538 0.844067 17.7253 1.43885 19.6188 2.57868C21.5174 3.70742 23.086 5.31528 24.1675 7.24118C25.285 9.20368 25.8438 11.3487 25.8438 13.6724Z" fill="black"/>
</g>
<defs>
<clipPath id="clip0_29_125">
<rect width="25" height="25" fill="white" transform="translate(0.84375 0.859863)"/>
</clipPath>
</defs>
</svg>
