<svg width="36" height="51" viewBox="0 0 36 51" fill="none" xmlns="http://www.w3.org/2000/svg">
<g clip-path="url(#clip0_1_25)">
<path d="M35.4002 10.3014L32.1813 46.3623L17.7117 50.3737L3.28209 46.3679L0.0664368 10.3014H35.4002Z" fill="#E44D26"/>
<path d="M17.7333 47.3075L29.4254 44.0661L32.1761 13.2503H17.7333V47.3075Z" fill="#F16529"/>
<path d="M11.4757 22.0972H17.7333V17.6738H6.64151L6.74733 18.8605L7.83458 31.0503H17.7333V26.6269H11.88L11.4757 22.0972ZM12.4727 33.2621H8.03223L8.6519 40.2075L17.713 42.7227L17.7333 42.7172V38.115L17.7139 38.1201L12.7876 36.7899L12.4727 33.2621Z" fill="#EBEBEB"/>
<path d="M3.35382 0.5H5.60174V2.72091H7.65811V0.5H9.90617V7.22548H7.65825V4.97341H5.60188V7.22548H3.35396L3.35382 0.5ZM12.8621 2.73033H10.8835V0.5H17.0904V2.73033H15.1105V7.22548H12.8625V2.73033H12.8621ZM18.0754 0.5H20.4193L21.8612 2.86316L23.3016 0.5H25.6465V7.22548H23.4077V3.89197L21.8612 6.28324H21.8224L20.2749 3.89197V7.22548H18.0754V0.5ZM26.7652 0.5H29.0138V5.00249H32.175V7.22548H26.765V0.5H26.7652Z" fill="black"/>
<path d="M17.7181 31.0503H23.165L22.6515 36.7871L17.718 38.1187V42.7206L26.7862 40.2075L26.8527 39.4601L27.8923 27.8147L28.0002 26.6269H17.7181V31.0503ZM17.7181 22.0864V22.0972H28.4027L28.4914 21.1031L28.693 18.8605L28.7987 17.6738H17.7181V22.0864Z" fill="white"/>
</g>
<defs>
<clipPath id="clip0_1_25">
<rect width="35.4667" height="50" fill="white" transform="translate(0 0.5)"/>
</clipPath>
</defs>
</svg>
