<svg width="51" height="51" viewBox="0 0 51 51" fill="none" xmlns="http://www.w3.org/2000/svg">
<g clip-path="url(#clip0_1_37)">
<path d="M0.93335 0.5H50.9333V50.5H0.93335V0.5Z" fill="#F7DF1E"/>
<path d="M14.0802 42.2836L17.9064 39.968C18.6447 41.2768 19.3162 42.3842 20.9269 42.3842C22.4709 42.3842 23.4445 41.7803 23.4445 39.431V23.4549H28.1431V39.4975C28.1431 44.3641 25.2904 46.5793 21.1283 46.5793C17.3695 46.5793 15.1876 44.6326 14.08 42.2832M30.6953 41.7801L34.521 39.565C35.5283 41.2098 36.8373 42.418 39.1529 42.418C41.1 42.418 42.3414 41.4445 42.3414 40.1019C42.3414 38.491 41.066 37.9203 38.9179 36.9809L37.7435 36.4769C34.3535 35.0342 32.1048 33.2217 32.1048 29.3955C32.1048 25.8713 34.7898 23.1861 38.9853 23.1861C41.9724 23.1861 44.1205 24.2268 45.6642 26.9453L42.0056 29.2949C41.2 27.8517 40.3277 27.2812 38.9851 27.2812C37.6089 27.2812 36.7363 28.1539 36.7363 29.2949C36.7363 30.7045 37.6089 31.2754 39.6226 32.148L40.7972 32.6514C44.7914 34.3633 47.04 36.1084 47.04 40.035C47.04 44.2643 43.7173 46.5799 39.2535 46.5799C34.8904 46.5799 32.0711 44.499 30.6951 41.7803" fill="black"/>
</g>
<defs>
<clipPath id="clip0_1_37">
<rect width="50" height="50" fill="white" transform="translate(0.93335 0.5)"/>
</clipPath>
</defs>
</svg>
