<svg width="30" height="30" viewBox="0 0 30 30" fill="none" xmlns="http://www.w3.org/2000/svg">
<path d="M5 22.5C4.64584 22.5 4.34875 22.38 4.10875 22.14C3.86875 21.9 3.74917 21.6033 3.75 21.25C3.75 20.8958 3.87 20.5988 4.11 20.3588C4.35 20.1188 4.64667 19.9992 5 20H25C25.3542 20 25.6513 20.12 25.8913 20.36C26.1313 20.6 26.2508 20.8967 26.25 21.25C26.25 21.6042 26.13 21.9013 25.89 22.1413C25.65 22.3813 25.3533 22.5008 25 22.5H5ZM5 16.25C4.64584 16.25 4.34875 16.13 4.10875 15.89C3.86875 15.65 3.74917 15.3533 3.75 15C3.75 14.6458 3.87 14.3488 4.11 14.1088C4.35 13.8688 4.64667 13.7492 5 13.75H25C25.3542 13.75 25.6513 13.87 25.8913 14.11C26.1313 14.35 26.2508 14.6467 26.25 15C26.25 15.3542 26.13 15.6513 25.89 15.8913C25.65 16.1313 25.3533 16.2508 25 16.25H5ZM5 10C4.64584 10 4.34875 9.88 4.10875 9.64C3.86875 9.4 3.74917 9.10334 3.75 8.75C3.75 8.39584 3.87 8.09875 4.11 7.85875C4.35 7.61875 4.64667 7.49917 5 7.5H25C25.3542 7.5 25.6513 7.62 25.8913 7.86C26.1313 8.1 26.2508 8.39667 26.25 8.75C26.25 9.10417 26.13 9.40125 25.89 9.64125C25.65 9.88125 25.3533 10.0008 25 10H5Z" fill="black"/>
</svg>
