<svg width="26" height="25" viewBox="0 0 26 25" fill="none" xmlns="http://www.w3.org/2000/svg">
<path d="M15.4271 3.125V5.20833H19.1667L8.92708 15.4479L10.3958 16.9167L20.6354 6.67708V10.4167H22.7188V3.125M20.6354 19.7917H6.05208V5.20833H13.3438V3.125H6.05208C5.49955 3.125 4.96964 3.34449 4.57894 3.73519C4.18824 4.12589 3.96875 4.6558 3.96875 5.20833V19.7917C3.96875 20.3442 4.18824 20.8741 4.57894 21.2648C4.96964 21.6555 5.49955 21.875 6.05208 21.875H20.6354C21.188 21.875 21.7179 21.6555 22.1086 21.2648C22.4993 20.8741 22.7188 20.3442 22.7188 19.7917V12.5H20.6354V19.7917Z" fill="black"/>
</svg>
