<svg width="56" height="55" viewBox="0 0 56 55" fill="none" xmlns="http://www.w3.org/2000/svg">
<g clip-path="url(#clip0_93_7)">
<path d="M17.2985 31.8403C20.0452 31.8403 22.2719 29.6136 22.2719 26.8667C22.2719 24.1202 20.0452 21.8936 17.2983 21.8936C14.5518 21.8936 12.3251 24.12 12.3251 26.8669C12.3251 29.6136 14.5518 31.8403 17.2985 31.8403ZM5.54343 41.7868C8.29014 41.7868 10.5168 39.5603 10.5168 36.8134C10.5168 34.0669 8.29014 31.8403 5.54321 31.8403C2.79693 31.8403 0.570068 34.0667 0.570068 36.8134C0.570068 39.5601 2.7965 41.7868 5.54343 41.7868ZM50.4539 41.7868C53.2006 41.7868 55.4272 39.5603 55.4272 36.8134C55.4272 34.0669 53.2008 31.8403 50.4539 31.8403C47.7071 31.8403 45.4805 34.0667 45.4805 36.8134C45.4805 39.5601 47.7071 41.787 50.4541 41.787L50.4539 41.7868Z" fill="black"/>
<path d="M34.1197 27.0765C33.9607 25.4149 33.8797 24.0319 32.6069 23.0599C30.995 21.8291 29.1689 22.6277 26.9197 21.8158C24.7094 21.2811 23.0701 19.3189 23.0701 16.98C23.0701 14.2296 25.3368 12 28.1328 12C30.2039 12 31.9844 13.2229 32.7686 14.9749C33.9689 17.2549 33.1886 19.575 34.6968 20.7437C36.4824 22.1276 38.8899 21.1142 41.5762 22.4254C42.4336 22.8189 43.164 23.4442 43.6848 24.2308C44.2165 25.034 44.4996 25.9763 44.4986 26.9396C44.4986 29.2785 42.8594 31.2409 40.6492 31.7756C38.3999 32.5875 36.5737 31.7889 34.9619 33.0197C33.149 34.404 34.1195 36.7198 32.642 39.1659C31.8035 40.7769 30.0991 41.8794 28.1328 41.8794C25.3368 41.8794 23.0701 39.6497 23.0701 36.8994C23.0701 34.9016 24.2662 33.1785 25.9925 32.3852C28.6788 31.0738 31.0861 32.0874 32.8719 30.7035C33.902 29.9051 34.1197 28.6736 34.1197 27.0765Z" fill="#D0021B"/>
</g>
<defs>
<clipPath id="clip0_93_7">
<rect width="54.86" height="54.86" fill="white" transform="translate(0.570068)"/>
</clipPath>
</defs>
</svg>
