<svg width="58" height="51" viewBox="0 0 58 51" fill="none" xmlns="http://www.w3.org/2000/svg">
<g clip-path="url(#clip0_1_40)">
<path d="M47.0967 16.6894C46.4993 16.4845 45.8967 16.2946 45.2897 16.1199C45.3917 15.7033 45.4855 15.2916 45.5689 14.8872C46.9369 8.24667 46.0426 2.89689 42.988 1.13549C40.0592 -0.553108 35.2695 1.20764 30.4323 5.41751C29.9555 5.83315 29.4894 6.26077 29.0342 6.69996C28.7295 6.40791 28.4195 6.12153 28.1042 5.84097C23.0344 1.33966 17.9529 -0.557495 14.9015 1.20895C11.9755 2.90281 11.109 7.93198 12.3406 14.2254C12.4631 14.8487 12.6015 15.4688 12.7555 16.0851C12.0362 16.2894 11.3421 16.507 10.6779 16.7386C4.734 18.8109 0.938171 22.0585 0.938171 25.4272C0.938171 28.9063 5.01317 32.396 11.204 34.512C11.7059 34.6829 12.2119 34.8412 12.7217 34.9868C12.5562 35.6506 12.4092 36.3188 12.2809 36.9908C11.1068 43.175 12.0237 48.0853 14.9419 49.7684C17.9559 51.5065 23.0147 49.7201 27.9404 45.4142C28.3398 45.0642 28.7304 44.7042 29.1119 44.3346C29.6047 44.8102 30.1108 45.2719 30.6294 45.7193C35.4009 49.825 40.1132 51.4829 43.0285 49.7951C46.0397 48.0519 47.0184 42.7769 45.7478 36.3592C45.6477 35.8564 45.5355 35.3561 45.4112 34.8587C45.7665 34.7535 46.1152 34.6451 46.4551 34.5324C52.891 32.4002 57.0785 28.9528 57.0785 25.4272C57.0785 22.0462 53.1601 18.7767 47.0967 16.6894ZM45.7009 32.2561C45.3939 32.3576 45.079 32.4557 44.7579 32.5511C44.0474 30.3017 43.0886 27.9101 41.9151 25.4388C43.0349 23.0265 43.9568 20.6653 44.6474 18.4307C45.2217 18.5969 45.779 18.7721 46.3162 18.957C51.5114 20.7456 54.6803 23.3897 54.6803 25.4272C54.6803 27.5973 51.2579 30.4147 45.7009 32.2561ZM43.3952 36.825C43.957 39.6627 44.0371 42.2285 43.6649 44.2344C43.3307 46.0368 42.6583 47.2383 41.8268 47.7197C40.0577 48.7438 36.2741 47.4127 32.1937 43.9013C31.7113 43.4854 31.2406 43.0561 30.782 42.614C32.364 40.884 33.945 38.8728 35.488 36.639C38.202 36.3982 40.766 36.0044 43.0912 35.4669C43.2033 35.9171 43.3046 36.3699 43.3952 36.825ZM20.0776 47.5427C18.3491 48.153 16.9724 48.1706 16.1401 47.6908C14.3693 46.6695 13.6331 42.7267 14.6373 37.4381C14.7567 36.8132 14.8933 36.1917 15.0472 35.5743C17.3467 36.0831 19.8921 36.4489 22.6125 36.6695C24.166 38.8552 25.7926 40.8642 27.4318 42.6234C27.0834 42.9605 26.7268 43.289 26.3623 43.6085C24.184 45.5125 22.0013 46.8633 20.0776 47.5427ZM11.9798 32.2427C9.24234 31.307 6.98159 30.091 5.43203 28.764C4.03949 27.5717 3.33664 26.3877 3.33664 25.4272C3.33664 23.3829 6.38422 20.7754 11.4673 19.0033C12.0842 18.7883 12.7298 18.5855 13.3998 18.3951C14.1024 20.6802 15.0239 23.0695 16.136 25.4855C15.0094 27.9372 14.0748 30.3647 13.3654 32.6767C12.9 32.5434 12.4381 32.3987 11.9798 32.2427ZM14.6943 13.7647C13.6393 8.37277 14.3399 4.30544 16.1033 3.28461C17.9814 2.19733 22.1344 3.74755 26.5119 7.63439C26.7973 7.88842 27.0781 8.1476 27.3542 8.4118C25.723 10.1633 24.1114 12.1574 22.5717 14.3302C19.9314 14.575 17.404 14.9679 15.0803 15.4945C14.9371 14.9213 14.8084 14.3443 14.6943 13.7647ZM38.9108 19.7445C38.3619 18.7964 37.7927 17.8603 37.2035 16.9368C38.9948 17.1633 40.711 17.464 42.3226 17.8315C41.8388 19.3824 41.2358 21.0037 40.5259 22.666C40.007 21.6815 39.4685 20.7075 38.9108 19.7445ZM29.0353 10.1258C30.1415 11.3243 31.2494 12.6622 32.3391 14.114C30.1285 14.0096 27.9143 14.0092 25.7037 14.1127C26.7945 12.6743 27.9119 11.3381 29.0353 10.1258ZM19.0965 19.7609C18.5457 20.7162 18.0173 21.6841 17.5116 22.664C16.8134 21.0076 16.2158 19.3789 15.7279 17.8061C17.3296 17.4478 19.0377 17.1548 20.8176 16.9324C20.2218 17.8616 19.648 18.8048 19.0965 19.7609ZM20.8687 34.0925C19.0298 33.8872 17.2961 33.6094 15.6948 33.2607C16.1904 31.6598 16.8011 29.9965 17.5145 28.3046C18.0221 29.2852 18.5528 30.2537 19.1059 31.2094C19.6748 32.1919 20.2638 33.1541 20.8687 34.0925ZM29.1016 40.8973C27.9647 39.671 26.8309 38.3142 25.7237 36.855C26.7987 36.8971 27.8945 36.9186 29.0083 36.9186C30.1526 36.9186 31.2838 36.8929 32.3972 36.8434C31.304 38.3289 30.2002 39.6877 29.1016 40.8973ZM40.5485 28.2182C41.2989 29.9287 41.9314 31.5833 42.4336 33.1568C40.8059 33.5283 39.0485 33.8274 37.1967 34.0495C37.7901 33.1089 38.3647 32.1565 38.9202 31.1929C39.485 30.2136 40.0279 29.2217 40.5485 28.2182ZM36.8428 29.9947C35.9924 31.472 35.0942 32.9212 34.1496 34.3401C32.4385 34.4613 30.7237 34.5215 29.0083 34.5206C27.2612 34.5206 25.5619 34.4662 23.9255 34.3601C22.9562 32.9444 22.0409 31.4927 21.1814 30.0079C20.3259 28.5309 19.5271 27.022 18.7862 25.4844C19.5252 23.9464 20.3218 22.4368 21.1744 20.9587L21.1741 20.959C22.0263 19.4805 22.9344 18.0349 23.8963 16.6254C25.5658 16.4991 27.2779 16.4333 29.0081 16.4333C30.7463 16.4333 32.4608 16.4997 34.1298 16.6269C35.0821 18.0344 35.9843 19.475 36.8349 20.946C37.6902 22.4208 38.4974 23.9231 39.2551 25.4504C38.5052 26.9933 37.7006 28.5091 36.8428 29.9947ZM41.7901 3.21312C43.67 4.29733 44.4011 8.66948 43.22 14.403C43.1445 14.7688 43.0599 15.1414 42.9678 15.5193C40.6384 14.9815 38.1092 14.5818 35.4612 14.3333C33.9187 12.1366 32.3202 10.1394 30.7156 8.41049C31.1361 8.00512 31.5667 7.61026 32.0068 7.22628C36.1516 3.61948 40.0252 2.19536 41.7901 3.21312ZM29.0083 20.414C31.777 20.414 34.0215 22.6585 34.0215 25.4272C34.0215 28.1958 31.777 30.4403 29.0083 30.4403C26.2397 30.4403 23.9952 28.1958 23.9952 25.4272C23.9952 22.6585 26.2397 20.414 29.0083 20.414Z" fill="#00D8FF"/>
</g>
<defs>
<clipPath id="clip0_1_40">
<rect width="56.15" height="50" fill="white" transform="translate(0.93335 0.5)"/>
</clipPath>
</defs>
</svg>
