<svg width="26" height="25" viewBox="0 0 26 25" fill="none" xmlns="http://www.w3.org/2000/svg">
<g clip-path="url(#clip0_29_116)">
<path d="M18.2409 17.209C16.4831 20.8027 13.405 23.2207 9.33272 24.0156C8.70833 24.1686 8.06735 24.2434 7.42451 24.2383C5.08076 24.2383 2.93232 23.2617 1.88936 21.6621C0.488965 19.5313 0.0124028 15.0137 4.62959 11.6719C4.72334 12.1816 4.91475 12.8809 5.0417 13.2949C4.13532 13.9683 3.39341 14.8384 2.87178 15.8398C2.0124 17.5273 2.10811 19.2129 3.12568 20.7715C3.82881 21.8223 4.94209 22.4609 6.37373 22.6562C8.16189 22.8826 9.97594 22.541 11.5593 21.6797C14.0417 20.375 15.696 18.8164 16.778 16.6855C16.4721 16.3694 16.291 15.9531 16.2683 15.5137C16.2519 15.0422 16.4233 14.5834 16.7448 14.2381C17.0663 13.8928 17.5116 13.6892 17.9831 13.6719H18.0495C18.5081 13.6696 18.95 13.8437 19.2838 14.1581C19.6176 14.4725 19.8178 14.9033 19.8429 15.3612C19.868 15.8191 19.7161 16.2691 19.4186 16.6181C19.1212 16.9672 18.7009 17.1885 18.2448 17.2363L18.2409 17.209ZM23.8405 13.2637C26.2253 15.9668 26.2897 19.1484 25.3679 20.9941C24.5085 22.6797 22.2429 24.3672 19.196 24.3672C17.7737 24.3382 16.3745 24.0017 15.0944 23.3809C15.5417 23.0625 16.1765 22.5527 16.5261 22.2344C17.5132 22.662 18.5754 22.8891 19.6511 22.9023C21.6237 22.9023 23.1179 21.9805 24.0085 20.2949C24.5808 19.1816 24.614 17.877 24.073 16.541C23.4091 14.8601 22.2278 13.434 20.6999 12.4688C18.6953 11.1175 16.3322 10.3971 13.9147 10.4004H13.3425C13.209 10.7086 12.9919 10.9734 12.7158 11.1646C12.4397 11.3558 12.1155 11.4659 11.78 11.4824H11.7194C11.2554 11.4767 10.8119 11.2903 10.4831 10.9629C10.1542 10.6354 9.96602 10.1927 9.95839 9.72866C9.95076 9.26466 10.1243 8.81596 10.4422 8.47787C10.7601 8.13977 11.1972 7.93892 11.6608 7.91797H11.7253C12.0484 7.91821 12.3651 8.00748 12.6407 8.17596C12.9164 8.34445 13.1403 8.58564 13.2878 8.87305H13.7976C17.8601 8.87305 21.4265 10.4316 23.8405 13.2637ZM7.67842 17.7559C7.64497 17.4315 7.72355 17.1055 7.90107 16.832C6.11982 13.7461 5.1667 9.83398 6.62959 5.76172C7.67842 2.70117 10.319 0.632812 13.1823 0.632812C16.237 0.632812 19.4187 3.30664 19.7995 8.45898C19.323 8.30078 18.6276 8.06836 18.2097 7.98242C18.1062 6.29687 16.6823 2.09766 13.3093 2.16016C12.1003 2.19336 10.319 2.76562 9.40303 3.94141C8.26995 5.34496 7.61079 7.07148 7.52021 8.87305C7.30551 11.3433 7.88508 13.8176 9.17451 15.9355C9.2457 15.9095 9.32158 15.8989 9.39717 15.9043H9.45967C9.93209 15.8958 10.3885 16.0752 10.7286 16.4032C11.0687 16.7312 11.2646 17.1809 11.2731 17.6533C11.2817 18.1257 11.1022 18.5822 10.7742 18.9223C10.4462 19.2624 9.99654 19.4583 9.52412 19.4668H9.45967C8.99879 19.4652 8.55632 19.2857 8.22448 18.9659C7.89264 18.6461 7.69703 18.2105 7.67842 17.75V17.7559Z" fill="#764ABC"/>
</g>
<defs>
<clipPath id="clip0_29_116">
<rect width="25" height="25" fill="white" transform="translate(0.918701)"/>
</clipPath>
</defs>
</svg>
